<?xml version="1.0" standalone="no"?><!DOCTYPE svg PUBLIC "-//W3C//DTD SVG 1.1//EN" "http://www.w3.org/Graphics/SVG/1.1/DTD/svg11.dtd"><svg t="1587610185618" class="icon" viewBox="0 0 1024 1024" version="1.1" xmlns="http://www.w3.org/2000/svg" p-id="4370" xmlns:xlink="http://www.w3.org/1999/xlink" width="200" height="200"><defs><style type="text/css"></style></defs><path d="M674.831 863.708a25.907 25.907 0 0 1-18.427-7.629L330.737 530.422a26.086 26.086 0 0 1 0-36.839L656.42 167.91a25.897 25.897 0 0 1 18.422-7.623 25.907 25.907 0 0 1 18.426 7.623 26.112 26.112 0 0 1 7.634 18.412 26.153 26.153 0 0 1-7.618 18.427L386.007 512l307.246 307.241a26.092 26.092 0 0 1 0 36.843 25.907 25.907 0 0 1-18.422 7.624z" fill="#2c2c2c" p-id="4371"></path></svg>